<svg xmlns="http://www.w3.org/2000/svg" width="15" height="15" fill="none" overflow="visible"><g><path d="M 0 15 L 0 0 L 15 0 L 15 15 Z" fill="transparent"></path><g><path d="M 0 15 L 0 0 L 15 0 L 15 15 Z" fill="transparent"></path><g><path d="M 0 15 L 0 0 L 15 0 L 15 15 Z" fill="transparent"></path><path d="M 13.125 6.25 L 1.875 6.25 M 10 1.25 L 10 3.75 M 5 1.25 L 5 3.75 M 4.875 13.75 L 10.125 13.75 C 11.175 13.75 11.7 13.75 12.101 13.545 C 12.454 13.366 12.741 13.079 12.92 12.726 C 13.125 12.325 13.125 11.8 13.125 10.75 L 13.125 5.5 C 13.125 4.45 13.125 3.925 12.92 3.524 C 12.741 3.171 12.454 2.884 12.101 2.705 C 11.7 2.5 11.175 2.5 10.125 2.5 L 4.875 2.5 C 3.825 2.5 3.3 2.5 2.899 2.705 C 2.546 2.884 2.259 3.171 2.08 3.524 C 1.875 3.925 1.875 4.45 1.875 5.5 L 1.875 10.75 C 1.875 11.8 1.875 12.325 2.08 12.726 C 2.259 13.079 2.546 13.366 2.899 13.545 C 3.3 13.75 3.825 13.75 4.875 13.75 Z" fill="transparent" stroke-width="1.2501" stroke="rgb(193, 193, 190)" stroke-linecap="round" stroke-linejoin="round" stroke-dasharray=""></path></g></g></g></svg>